# xmcd
#
# Track frame offsets:
#	200
#	12465
#	29902
#	40242
#	52380
#	64380
#	77052
#	91950
#	110590
#	124970
#	141100
#
# Disc length: 2108 seconds
#
# Revision: 0
# Processed by: cddbd v1.5.1PL0 Copyright (c) Steve Scherf et al.
# Submitted via: dBpowerAMP V4.0
#
DISCID=a7083a0b
DTITLE=Carlos Díaz "Caito" - De Alguna Manera
DYEAR=1900
DGENRE=Other
TTITLE0=Sólo tu cuerpo
TTITLE1=Creéme
TTITLE2=Canción
TTITLE3=Cazaba el tigre palomas
TTITLE4=Cuentame una tontería
TTITLE5=De alguna manera
TTITLE6=Que ya viví, que te vas
TTITLE7=Aguas
TTITLE8=El colibrí
TTITLE9=Dentro
TTITLE10=Abril
EXTD=Carlos Díaz "Caito. De Alguna Manera
EXTT0=
EXTT1=
EXTT2=
EXTT3=
EXTT4=
EXTT5=
EXTT6=
EXTT7=
EXTT8=
EXTT9=
EXTT10=
PLAYORDER=
